<svg id="Camada_1" data-name="Camada 1" xmlns="http://www.w3.org/2000/svg" xmlns:xlink="http://www.w3.org/1999/xlink" viewBox="0 0 1930 1287"><defs><style>.cls-1,.cls-4,.cls-5{fill:none;}.cls-2{opacity:0.5;}.cls-3{clip-path:url(#clip-path);}.cls-4,.cls-5{stroke:#00fd00;stroke-miterlimit:10;}.cls-4{stroke-width:3px;}</style><clipPath id="clip-path"><rect class="cls-1" x="0.17" y="0.1" width="1929.83" height="1286.55"/></clipPath></defs><g class="cls-2"><g class="cls-3"><path class="cls-4" d="M1134.77,1336c38.27-20.08,59.14-63.53,65.77-106.24s1.63-86.26,2-129.48a526.43,526.43,0,0,1,13.38-114.07c3.64-15.78,8.11-31.65,16.7-45.39,19.08-30.51,55.19-45.71,90.14-54.3s71.6-12.64,103.66-29c43-21.92,72.55-63.34,95.37-105.85s40.84-87.93,69.4-126.82,70.65-71.57,118.83-74c44.8-2.24,86.27,21.45,129.59,33.08,60.35,16.21,126.84,8.23,181.64-21.81"/><path class="cls-4" d="M1003.51,711.72c102.38-88.29,130.89-245.35,243.3-320.46,42.9-28.68,95.64-43.33,131.65-80.29,38-39,50.7-98.58,39.76-152S1375,58.32,1334.67,21.67C1261.33-45,1154.84-78.85,1059.61-51.45,985.85-30.22,926.28,23.74,874.4,80.3S774.63,198.45,711.9,242.67c-81.06,57.14-181,81.12-266.28,131.69-25.9,15.35-51.23,34.08-65.29,60.71-13.82,26.19-15.18,57.09-13.69,86.67,1.94,38.21,9.12,78.39,34.13,107.34,25.91,30,66.08,42.62,104.08,53.88,52.54,15.58,106.67,28.73,158.15,47.52,30.64,11.19,58.25,28.5,90,36.75C841.5,790.26,932.76,768.32,1003.51,711.72Z"/><path class="cls-4" d="M481.69,1380.79c73-38,119.17-125.49,127-205.27,9.55-97.84-47.52-167.22-140.16-193.91-65.39-18.85-141-6.05-202.08-40-76-42.17-50.58-141-73.89-210.45C162,640.33,100.91,561.8,91.42,464.13c-8-82.48,13.65-167.64,60.22-236.2,46.68-68.72,119.42-120.64,146.07-202.09A199.12,199.12,0,0,0,297.39-98"/><path class="cls-4" d="M869.13,1343.07c102.41-135.5,80.78-333.11,174-475.09,49.66-75.62,127.2-127.91,204.6-174.76,60.58-36.66,124.39-73.07,165.24-130.92,31.22-44.23,46.38-97.42,63.77-148.7,28.17-83.07,66.79-167.94,138.49-218.45,82.28-58,190.1-59,287.64-83.78,26.21-6.66,54.49-17.18,67-41.13"/><path class="cls-4" d="M803.36-73.85C741.9-45.4,704.55,16.8,669.78,74.92S594.71,194.26,531.29,218c-21.85,8.19-47.73,10.94-67.51-1.44C452.92,209.8,445,199,439.65,187.38c-19.12-41.94-5.41-90.9,9.9-134.37S481.76-37.43,468.2-81.48c-2.1-6.83-6-14.34-13-15.68"/><path class="cls-4" d="M158.63,1348C178.82,1269,147,1182.15,88.86,1125s-139.17-87-220.32-95.31"/><path class="cls-4" d="M1501.43,1379.5c73.54-40.1,110.6-125.1,127.94-207s20.51-167.56,50.85-245.64c31.74-81.67,91.12-149.45,154.17-210.29,49.12-47.39,108.61-94.46,176.78-91"/><path class="cls-5" d="M1575.1,1373.15c6.52-1.37,11-7.25,14.69-12.79,63.79-95.06,90.44-209.51,115.64-321.18,8.9-39.46,17.83-79.09,32.35-116.83,43.4-112.78,138.55-204.43,252.87-243.57"/><path class="cls-5" d="M1629,1377.38c6.14-1.36,10.56-6.49,14.35-11.34a396,396,0,0,0,30.22-44.32,331.62,331.62,0,0,0,29.88-66.67c2.93-9.26,5.39-18.6,8.38-28,5.68-17.82,12.87-34.57,19.19-51.6,12.4-33.35,22.14-68.83,30.72-104.52,5-21,9.73-42.21,15-63.09,4-16,8.46-31.9,13.72-47.49a402.53,402.53,0,0,1,56.68-109.9c42.08-57.3,100.79-103.07,167.91-128.56"/><path class="cls-5" d="M1682.85,1381.6c5.75-1.35,10.13-5.71,14-9.88a307.12,307.12,0,0,0,31.05-38.8c12.53-18.77,22.89-40.13,28.46-62.11,2.23-8.78,3.71-17.63,6.41-26.47,5.13-16.82,13.87-31.26,21.26-46.1,14.54-29.11,25.33-61.92,33.94-95.48,5-19.66,9.39-39.68,13.87-59.36,3.44-15.13,7-30.16,11.25-45,10.67-37.47,25.49-73.08,46.1-105.53,35.45-55.8,88.24-101.6,150.21-127.83"/><path class="cls-5" d="M1736.73,1385.83c5.37-1.35,9.71-4.95,13.67-8.43a238.1,238.1,0,0,0,31.87-33.27c12.85-16.66,23.24-36.78,27-57.55,1.53-8.3,2-16.67,4.43-25,4.59-15.83,14.88-27.95,23.34-40.61,16.69-24.86,28.52-55,37.17-86.44,5-18.33,9-37.15,12.73-55.63,2.84-14.24,5.6-28.42,8.77-42.43,8-35.48,18.78-69.57,35.53-101.16,28.8-54.31,75.69-100.12,132.5-127.1"/><path class="cls-5" d="M1790.6,1390.05c5-1.33,9.3-4.18,13.34-7,11.72-8.12,22.91-16.93,32.7-27.74,13.17-14.54,23.58-33.43,25.64-53,.82-7.82.34-15.7,2.45-23.48,4-14.84,15.87-24.64,25.41-35.12,18.83-20.62,31.71-48.1,40.39-77.4a442.49,442.49,0,0,0,11.59-51.9c2.24-13.35,4.17-26.68,6.3-39.9,5.38-33.48,12.06-66.07,24.95-96.78a258.37,258.37,0,0,1,114.79-126.38"/><path class="cls-5" d="M1844.48,1394.28a73.49,73.49,0,0,0,13-5.52c12-6.12,23.51-13,33.54-22.21,13.48-12.42,23.93-30.08,24.22-48.44.12-7.35-1.34-14.75.48-22,3.49-13.84,16.87-21.32,27.47-29.62,21-16.37,34.91-41.19,43.63-68.36a277.6,277.6,0,0,0,10.45-48.17c1.63-12.46,2.74-24.94,3.82-37.37,2.74-31.49,5.35-62.57,14.38-92.41a225.68,225.68,0,0,1,97.08-125.65"/><path class="cls-5" d="M1898.36,1398.5c16.43-5.13,33.22-10.45,47-20.75s24.28-26.72,22.81-43.88c-.58-6.86-3-13.78-1.49-20.5,2.94-12.86,17.87-18,29.54-24.14,36.36-19,52.53-62.86,56.16-103.75s-2-82.47,5.15-122.88a197.25,197.25,0,0,1,79.38-124.93"/><path class="cls-5" d="M1504,1314.45c51.25-31.82,77.37-92.47,88.91-151.68s11.63-120.42,26.17-179a371.77,371.77,0,0,1,51.11-116c38.34-57.7,92.63-104.42,124.6-165.88,13.84-26.61,22.37-61.3,3.9-84.93-19.68-25.18-58.77-23.26-88.54-11.66-70.69,27.57-119.7,92.72-155.11,159.83-22,41.65-41.91,87.25-80.42,114.35-59.86,42.13-152,30.12-198.35,86.74-29.56,36.07-29.07,87.09-31.14,133.67a815.62,815.62,0,0,1-18.71,141.24c-6.65,29.86-15.12,59.68-30.15,86.33"/><path class="cls-5" d="M1696.88,780.25c17.36-17.31,36.51-32.94,52-52s27.22-42.46,26.38-67c-.19-5.78-1.16-11.72-4.24-16.62-8.64-13.72-28.94-13.17-44.27-7.9-41.72,14.33-72.61,50-95.62,87.59-21.61,35.36-38.17,73.65-61.76,107.83-14.94,21.66-36.8,43.89-5.16,61.75,24.73,14,47.6,5,62.17-16.86C1649.05,843.1,1667.49,809.55,1696.88,780.25Z"/><path class="cls-5" d="M1549.12,1191c17.53-47,23.08-97.63,23.49-147.75.25-30.53-3.59-65.46-28.39-83.26-13.62-9.77-31-12.25-47.77-13.41A410.46,410.46,0,0,0,1350.09,963c-12,3.62-24.32,8.07-33.08,17-12.52,12.81-15.29,32-16.93,49.83-5.07,55.18-5.53,111.35-20.7,164.65-7.74,27.2-19.32,53.7-21.27,81.91-1,14.31,1,29.79,10.47,40.55s24.7,14.71,39.05,16.27c46.77,5.07,111-5.32,153.39-27.07C1503.18,1284.55,1533.17,1233.72,1549.12,1191Z"/><path class="cls-5" d="M1337.69,1011.39c-9.59,10.37-11.92,25.47-13.34,39.59-4.4,43.7-4.71,88.35-17.85,130.17-7.27,23.12-18,47.91-17.84,71.3.1,11.73,3.6,23.15,12.85,31.26,8.45,7.4,20,10.52,31.54,11.23,37.32,2.38,87.46-8,120.73-27.15,33.1-19,56.53-60.14,69-94.29,13.28-36.42,17.65-75.6,17.86-114.37.13-23.61-3.08-50.26-21.73-64.55-10.68-8.18-24.27-11.13-37.62-12.68a246.85,246.85,0,0,0-31.66-1.67c-29.53.37-58.69,6.3-86.06,16.21C1354.11,999.84,1344.56,1004,1337.69,1011.39Z"/><path class="cls-5" d="M1358.37,1042.72c-6.67,7.92-8.56,18.93-9.76,29.35-3.71,32.23-4.08,65.32-15,95.69-6.85,19.06-16.79,42.1-14.41,60.68,1.17,9.16,5.87,16.42,15.24,22a46.18,46.18,0,0,0,24,6.2c27.87-.38,63.9-10.74,88.06-27.22s40.94-47.8,49.88-73.38c9-25.88,12.23-53.57,12.25-81,0-16.7-2.55-35.14-15.07-45.84-7.76-6.63-17.5-10-27.49-12a132.18,132.18,0,0,0-24.1-2.52c-22.79-.25-44.94,5.86-65,15.17C1370.16,1033.07,1363.35,1036.81,1358.37,1042.72Z"/><path class="cls-5" d="M1379.06,1074c-3.79,5.45-5.21,12.41-6.19,19.11-3,20.76-3.79,42.21-12.14,61.22-6.58,15-15.62,36.28-11,50.07,2.21,6.57,7.59,10,17.63,12.68a39.54,39.54,0,0,0,16.52,1.16c18.41-3.07,40.34-13.46,55.4-27.3s25.36-35.44,30.77-52.47a152.09,152.09,0,0,0,6.62-47.62c-.11-9.78-1.91-20.2-8.41-27.13a43.3,43.3,0,0,0-17.34-11.22,58.4,58.4,0,0,0-16.54-3.37c-16.06-.87-31.22,5.37-43.89,14.14A43.72,43.72,0,0,0,1379.06,1074Z"/><path class="cls-5" d="M1443.7,1121c1.43-7.52,1.83-15.47-.74-22.67s-8.63-13.52-16.19-14.72c-12.41-2-22.84,9.89-27,21.74s-5,25.08-11.9,35.61c-10,15.36-21.71,50.54,12.45,42.84C1422.69,1178.78,1439.93,1140.92,1443.7,1121Z"/><path class="cls-5" d="M1985.93,438.07c-80.08-36-173.34,3.1-260.69-5.66-24-2.41-50.1-10.22-62.58-30.88-15.87-26.28-2.72-60.34,14.14-86,9-13.63,19.21-26.85,32.8-35.87,16.52-11,36.6-14.85,56.09-18.52l182.16-34.24c23.17-4.36,47.91-9.53,64.35-26.44"/><path class="cls-5" d="M1960.39,390.27l-192.76,2.54c-16.28.22-34.38-.24-46.13-11.52-15.32-14.7-11.39-41.76,2.93-57.45s35.67-22.63,56.23-28c26.49-6.89,53.46-12.2,80.76-14.24,34.25-2.56,71.06-.59,100-19.06"/><path class="cls-5" d="M1960.46,358.79c-46.35-4.19-93.42,2.31-139.4-4.86-5.81-.9-11.79-2.1-16.61-5.46s-8.24-9.43-6.79-15.13c2-8,11.71-11.07,19.9-12.36,48.2-7.58,98.36-2.36,145.22-15.93"/><path class="cls-5" d="M2012.6,530.61c-42.42,17.71-90.69,13.53-135.78,4.58S1787,512.78,1741,512.84c-77.76.1-154.23,42-196.11,107.58-25.06,39.21-38.28,85.72-67.7,121.78-38.4,47.08-98.4,69.58-154.82,92.12s-115.56,50.06-147,102.08c-21.66,35.88-27.16,78.85-33.26,120.31q-10.49,71.13-25.09,141.57c-10,48.36-25.45,101.88-68.52,126.06"/><path class="cls-5" d="M1995.65,486.05a1375.43,1375.43,0,0,0-330.25-4.27c-26.65,2.88-53.88,6.74-77.48,19.45-32.05,17.26-53.6,48.62-73.91,78.82l-50.86,75.63c-19.51,29-39.46,58.5-66.86,80.2-36,28.46-81.59,41.09-122.47,61.9A334.61,334.61,0,0,0,1134.9,931.06c-68.18,121.25-58.78,281.24-150.61,385.72"/><path class="cls-5" d="M925.74,1319.75c62.38-56.23,63.56-152.22,86.22-227.35,25.24-83.72,61.58-167.89,115.9-238.18,58.08-75.16,136.57-105.21,213.19-155C1421.34,647.09,1478.5,569,1523.71,486c43-79,67.72-190.54,143.6-244.08,99.87-70.47,243.33-42.82,347.81-106.25"/><path class="cls-5" d="M1961.49,34.29c-46.17,42.27-116.23,38.61-178,48.5-52,8.32-101.57,27.78-150.33,47.8C1609.93,140.11,1586,150,1561,149.92c-51.69,0-93.42-40.9-125.82-81.17S1369.85-16.7,1320.4-31.72"/><path class="cls-5" d="M1960.71-12.78c-32.9,37.3-84.83,51.4-134.31,56.47s-100.13,3.07-148.05,16.41c-27.5,7.66-53.87,20.31-82.28,23.13-39.14,3.88-78.23-11.64-110-34.82s-57.39-53.64-82.66-83.79"/><path class="cls-5" d="M1871.52-17.68c-18.88,20.12-48.46,25.05-75.79,28.86L1660.74,30c-17.18,2.4-34.57,4.79-51.82,2.94-45.06-4.85-81.59-37.3-114.78-68.16"/><path class="cls-5" d="M1506.55,246c5.18-7.06,10.43-14.25,13.4-22.48s3.41-17.82-.89-25.45c-2.74-4.84-7.15-8.53-11.86-11.48-12.49-7.81-31.22-9.82-40.19,1.86-6.74,8.78-5,21.07-4.78,32.14.45,20.54-32.19,71.52-15.14,82.82C1467.81,317.13,1496.54,259.61,1506.55,246Z"/><path class="cls-5" d="M1261,616.08c36.37-21.65,73.2-43.67,102.66-74.07a241.33,241.33,0,0,0,53.58-85.94c7.94-22.08,12.52-46.88,4-68.74-1.82-4.65-4.4-9.29-8.69-11.84-5-3-11.19-2.55-16.93-1.79-48.47,6.42-93.55,30.52-129.91,63.21s-64.51,73.65-87.4,116.85c-11.27,21.27-54.49,93.1-26.8,112.58C1175.57,683.27,1239.92,628.65,1261,616.08Z"/><path class="cls-5" d="M1330.88,482.8c4.44-4.9,9-10.11,10.52-16.56s-1.39-14.42-7.76-16.22c-6.58-1.86-12.89,3.3-17.79,8.07l-27,26.26c-8.62,8.39-51.18,50.66-17.81,55.46C1288.67,542.35,1319.74,495.1,1330.88,482.8Z"/><path class="cls-5" d="M917.43,1098.94c4.41-43.45,10.32-87.8,25-129.15,16.2-45.77,60.88-86.61,67.83-134.85,5.12-35.56-33.87-40.45-60.37-38.31-72.93,5.91-134.39,40.21-181.82,89.65s-80.83,114-97.64,180.48c-18.63,73.67-27.26,150.32-55.89,220.7-3.35,8.24-7,16.68-7,25.57.21,21.9,22.67,37,44,42.12,51.81,12.46,141.41-10,182.7-47,45.2-40.46,66-104.57,76.86-162.45C914,1130.21,915.85,1114.59,917.43,1098.94Z"/><path class="cls-5" d="M774.35,953.42c-11.87,12.48-21.51,26.79-30.12,41.69a415.21,415.21,0,0,0-38.51,91.43q-1.41,4.86-2.71,9.73c-7.66,28.77-14,57.9-22,86.38-8.18,28.82-19.08,57.4-24.83,82.54-1.34,5.85-2.59,11.61-1.7,17.81,2.08,14.63,16.91,24.85,32,28.11,37,8,99.07-8.41,128.37-35.37,20.76-19.11,34.93-45.42,45-73.37a380.39,380.39,0,0,0,14.77-55.14c2.39-12.23,4-24.52,5.42-36.74,3.54-31.77,7.89-63.92,17.86-93.65,4.13-12.29,10.7-24,17.59-35.51,12.23-20.42,24.95-41.08,27.1-62.9,2.39-24.31-23.74-27.84-42.11-26.54C850.07,895.51,807,919,774.35,953.42Z"/><path class="cls-5" d="M780.66,1020.55c-8.45,9-13.92,20.19-18.86,31.36-9.45,21.4-17.32,44.18-24.12,66.92-.7,2.31-1.38,4.63-2,6.94-6,20.51-11.79,41-19.77,60.59-8.41,20.68-21,40.63-18.11,56.55.61,3.33,1,6.7,3.55,10.06,1.92,7.59,11.16,12.69,20,14.1,22.26,3.56,56.67-6.85,74-23.74,14.25-13.86,24.23-33.46,31.62-54.34a311.47,311.47,0,0,0,11-40.22c1.87-9,3.32-17.93,4.48-26.73,2.64-20.1,5.43-40,10.78-58.14a135.59,135.59,0,0,1,9.41-22.5c6.52-13,12.31-26.43,12.13-39.47s-13.6-15.26-23.84-14.79C823.21,988.42,798.67,1001.29,780.66,1020.55Z"/><path class="cls-5" d="M809.74,1101.47c.68-5.57,1-11.91-2.83-16-5.11-5.56-15-3.44-19.93,2.26s-6.34,13.58-7.61,21c-2.45,14.32-5.33,28.65-9.73,42.4s-10.33,26.94-18.88,39c-10.23,14.4-30.23,28.51-2.58,32.86,11,1.73,20.08-3.2,27.64-12s13.55-21.51,18.29-35.32a311.27,311.27,0,0,0,10.71-42C807.33,1120.31,808.87,1108.68,809.74,1101.47Z"/><path class="cls-5" d="M1096.65,757.33c7.14-6.65,13.89-14,18.24-22.69s6.11-19.11,3-28.37-11.63-16.93-21.38-17.32c-10.42-.41-19.38,6.89-27.1,13.9-16.65,15.13-33.61,32.58-37,54.83C1024.35,812,1079,773.77,1096.65,757.33Z"/><path class="cls-5" d="M990.22,668.71c89.94-77.57,115-215.55,213.73-281.54,37.7-25.19,84-38.06,115.66-70.53,33.41-34.29,44.55-86.6,34.93-133.5s-38-88.46-73.4-120.66c-64.43-58.55-158-88.3-241.64-64.23C974.7,16.9,922.37,64.3,876.79,114S789.15,217.79,734,256.64c-71.22,50.2-159,71.26-233.93,115.69-22.76,13.48-45,29.94-57.36,53.33-12.14,23-13.34,50.16-12,76.14,1.7,33.57,8,68.87,30,94.3,22.76,26.35,58,37.44,91.43,47.34,46.16,13.68,93.71,25.24,138.94,41.75,26.91,9.82,51.16,25,79,32.28C847.89,737.7,928.06,718.43,990.22,668.71Z"/><path class="cls-5" d="M973.29,613.92C1048.55,551.4,1068,436.34,1149.38,382c31.06-20.75,69.23-31.36,95.29-58.11,27.52-28.26,36.7-71.35,28.78-110S1242.16,141,1213,114.46c-53.08-48.24-130.15-72.75-199.08-52.92-53.39,15.36-96.5,54.42-134,95.36s-72.21,85.52-117.62,117.52c-58.67,41.37-131,58.72-192.73,95.32-18.75,11.11-37.09,24.67-47.26,43.94-10,19-11,41.33-9.91,62.73,1.4,27.66,6.6,56.74,24.71,77.7,18.75,21.71,47.82,30.84,75.33,39,38,11.28,77.2,20.8,114.47,34.4C749,635.6,769,648.13,792,654.1,856,670.77,922.84,655.83,973.29,613.92Z"/><path class="cls-5" d="M956.36,559.14c59.18-49.16,74.49-139.62,138.45-182.37,24.42-16.32,54.43-24.66,74.92-45.69,21.64-22.22,28.86-56.1,22.63-86.48s-24.6-57.3-47.55-78.16c-41.73-37.93-102.33-57.2-156.53-41.61-42,12.08-75.88,42.79-105.4,75s-56.77,67.24-92.47,92.4c-46.13,32.52-103,46.17-151.54,74.94-14.74,8.74-29.16,19.4-37.15,34.55-7.87,14.91-8.65,32.49-7.79,49.32,1.1,21.75,5.19,44.61,19.42,61.09,14.74,17.07,37.6,24.25,59.23,30.66,29.9,8.87,60.7,16.35,90,27.05,17.43,6.36,33.14,16.21,51.2,20.91A159.23,159.23,0,0,0,956.36,559.14Z"/><path class="cls-5" d="M939.43,504.36c43.09-35.8,54.23-101.67,100.81-132.79,17.78-11.88,39.63-18,54.55-33.27,15.76-16.18,21-40.85,16.48-63s-17.91-41.72-34.62-56.91c-30.39-27.62-74.52-41.65-114-30.3-30.56,8.8-55.25,31.16-76.74,54.6s-41.34,49-67.34,67.28c-33.59,23.68-75,33.61-110.34,54.57-10.73,6.36-21.23,14.12-27,25.15-5.73,10.85-6.29,23.66-5.67,35.92.8,15.83,3.78,32.48,14.14,44.47,10.74,12.43,27.38,17.66,43.13,22.33,21.77,6.45,44.2,11.91,65.53,19.69,12.69,4.64,24.13,11.81,37.28,15.23A115.94,115.94,0,0,0,939.43,504.36Z"/><path class="cls-5" d="M922.5,449.58c27-22.43,34-63.71,63.17-83.21,11.14-7.45,24.83-11.25,34.18-20.85,9.88-10.14,13.17-25.6,10.33-39.46s-11.23-26.14-21.7-35.66c-19-17.31-46.69-26.1-71.42-19-19.15,5.51-34.62,19.52-48.09,34.2s-25.9,30.68-42.19,42.16c-21,14.84-47,21.07-69.14,34.2-6.73,4-13.31,8.85-16.95,15.76s-4,14.83-3.56,22.51c.5,9.92,2.37,20.35,8.86,27.87,6.73,7.79,17.16,11.06,27,14,13.64,4,27.69,7.46,41.06,12.34,8,2.9,15.12,7.4,23.36,9.54A72.66,72.66,0,0,0,922.5,449.58Z"/><path class="cls-5" d="M905.57,394.79c10.74-9.26,13.73-25.74,25.53-33.63,4.5-3,10-4.54,13.81-8.42,4-4.1,5.33-10.35,4.18-15.95s-4.54-10.57-8.77-14.41c-7.7-7-18.87-10.55-28.87-7.67-7.74,2.22-14,7.89-19.43,13.82s-10.47,12.4-17.06,17c-8.5,6-19,8.51-27.94,13.82-2.72,1.61-5.38,3.58-6.85,6.37s-1.59,6-1.44,9.1c.2,4,1,8.22,3.58,11.26s6.94,4.47,10.93,5.66c5.51,1.63,11.19,3,16.59,5,3.22,1.18,6.12,3,9.45,3.86A29.83,29.83,0,0,0,905.57,394.79Z"/><path class="cls-5" d="M959-37.09C877.32,16.71,814.83,89.4,742.28,153.55a904.22,904.22,0,0,1-140.4,101.89C550.21,285.82,493.75,305.63,442,335.39,384.73,368.27,336.51,415.94,318.53,481c-15.46,56-10.79,128.84,23.09,177.81,18.19,26.3,45.95,44.8,75.51,57,57.33,23.7,122.54,24.37,174.24,62,27.8,20.25,39.66,49.69,43.07,82.92,1.89,18.43,1.08,37.73-7,54.43-10.91,22.67-33.14,32.31-57.26,32.73-52.62.93-103.49-21-154.65-29.93-41.94-7.34-88.29-1-122.38-32.2-28.81-26.35-34.39-68.67-43.89-106.54C217.57,652.73,124,538.74,135.06,408.77c8.28-97,73.49-178,130.9-256.67s111.92-171.88,94.3-267.64"/><path class="cls-5" d="M851.06-49.8C755.39,19.94,699.7,129.32,608.37,203.4c-100.82,81.76-269,116.11-322,247.48-25.88,64.12-25.43,162.26,6.89,224.43,43.86,84.39,161.33,76.91,227.55,134.77,9.79,8.55,18.85,18.65,22.87,31C570,922.2,428.24,882,394.94,869.37c-60.46-23-98-88.09-124.95-143.08-33.85-69-68-134.26-76.26-212.3C181.55,399.36,217,293.6,287.63,204c21.73-27.58,45.84-53.3,65.92-82.1,57.13-81.94,78.39-188,57.26-285.63"/><path class="cls-5" d="M399.42,278c6.35-4.65,12.9-9.63,16.3-16.72,4.81-10,2.27-21.93-.61-32.7-2.6-9.71-5.53-19.62-11.68-27.56s-16.32-13.57-26.16-11.57c-8.06,1.63-14.3,7.83-20,13.79-37.08,39-72.9,81.63-92.61,132.33-4,10.24-24.84,66.66,1.27,57.35,10.25-3.66,18.82-18.92,25.77-26.6a350.52,350.52,0,0,1,30.93-29.89C347,315.43,373.51,297.06,399.42,278Z"/><path class="cls-5" d="M691.12-20.83A847.82,847.82,0,0,0,636.8,60.41c-15.38,26.17-29.47,53.34-48.74,76.78s-44.69,43.31-74.45,49.27c-10.31,2.06-22.08,2.06-30.08-4.78-3.78-3.23-6.31-7.69-8.43-12.19a103.1,103.1,0,0,1-3.24-78.88C476.6,77.93,483.8,66.33,489.39,54a155.39,155.39,0,0,0,12.66-82.07"/><path class="cls-5" d="M653.72-14.55c-37,35.21-58.91,83.08-89.39,124.07-9.71,13.06-20.65,25.72-34.85,33.65-10.12,5.65-25,7.61-31.52-2-2.73-4-3.21-9.12-3-14,1-21.26,13.86-39.81,22.74-59.17a168.42,168.42,0,0,0,12.5-99.8"/><path class="cls-5" d="M600.78-23.91A176.12,176.12,0,0,0,579,21.38c-2,6.47-3.88,13.37-8.63,18.22a9.7,9.7,0,0,1-4.15,2.72c-3.94,1.12-8.1-1.88-9.74-5.64s-1.38-8-1.1-12.12l2.52-37c.28-4.11-.54-9.64-4.62-10.12"/><path class="cls-5" d="M473.32,1322.74c61.34-22.15,101-96.14,96.86-158.8-4.09-61.78-45.15-110.45-99-137.45-76.16-38.16-170.47-.6-239.91-57.31-51.49-42.06-60.65-106.43-72-167.59C137.78,685.38,50.11,483.33-102,504.78"/><path class="cls-5" d="M417.27,1327.92c51.37-22.19,83.68-86.37,79.89-141.51-3.69-53.82-38-96.81-82.41-122.87-64.1-37.58-143.24-15.15-203.69-66.93-44.86-38.43-56-94.43-69.95-147.21C114,747.1,30.47,579-104.86,593.1"/><path class="cls-5" d="M361.22,1333.1c41.4-22.22,66.35-76.6,62.92-124.23-3.29-45.85-30.75-83.28-65.78-108.28-52.05-37.16-116-29.69-167.47-76.54-38.22-34.81-51.44-82.47-67.94-126.84C90.07,808.75,10.82,674.67-107.74,681.41"/><path class="cls-5" d="M305.18,1338.28c31.42-22.26,49-66.82,45.93-107-2.87-37.88-23.49-69.95-49.14-93.69-40-37-88.77-44.23-131.25-86.16C139.15,1020.3,123.63,981,104.8,945,65.74,870.41-8.82,770.34-110.61,769.73"/><path class="cls-5" d="M249.13,1343.46c21.45-22.29,31.68-57,29-89.67-2.47-29.91-16-56.88-32.5-79.11-27.58-37.23-61.54-58.76-95-95.76-24.93-27.56-43-58.39-63.91-86.09C40.93,932.32-28.46,866-113.49,858"/><path class="cls-5" d="M193.08,1348.64c21.52-41.84,12.75-92.9-3.88-136.91C139.51,1080.25,20.79,977.14-116.36,946.36"/><path class="cls-5" d="M128.07,1312.45A272.06,272.06,0,0,0,48,1160.3c-27.94-26.67-61.19-47-94.2-67"/><path class="cls-5" d="M74.61,1305.94c-17.7-60.25-60-112.87-115-143.12"/><path class="cls-5" d="M32.9,1313.66c-10.42-15.83-16.89-33.92-26.36-50.34s-23.09-31.86-41.38-36.83"/><path class="cls-5" d="M755.45,838.59c7.5-14.2,9.4-29.23-4.17-41-23.16-20.06-77.93-34.76-86.94,7-10.72,49.6,17.16,103.42-22.9,146-14.51,15.42-45.33,29-45.5,53.74-.11,15.83,15.43,26.72,30.13,27.7,23.75,1.58,29.67-19.68,37.49-37.88,23.92-55.65,59.07-100.43,89.85-151.88C754.13,841,754.81,839.8,755.45,838.59Z"/><path class="cls-5" d="M423.09,846.71c6.58,2.27,13.69,2.38,20.65,2.09,6.51-.26,13.22-.92,19-4s10.32-9.18,9.79-15.68c-.63-7.91-8-13.33-14.93-17.26-11.83-6.74-69.72-35.08-80.11-16.59C368.51,811.18,411.87,842.83,423.09,846.71Z"/><path class="cls-5" d="M261.33-63.73c28.93,87.64-57,181.16-119.93,230-32,24.79-52.42,61-62.62,99.89C64.45,320.75,67.54,377.73,56.1,432.82,44.3,489.64-3,502.08-50.7,473.07q-21.15-12.88-40.95-27.83"/><path class="cls-5" d="M215.44-76.29C239.72-1.5,169,77.84,116.27,121.32c-28.54,23.53-48.17,56-60.31,90.05C38.4,260.64,33.68,311.88,21.43,363.83,9.14,415.94-26.91,428.51-71.1,416.38c-14.36-3.94-31.73-6.95-48.06-15.55"/><path class="cls-5" d="M169.55-88.85C189.17-26.91,133.72,38.44,91.13,76.4c-25.07,22.34-44,50.95-58,80.21C12.18,200.56-.14,246-13.24,294.84-26,342.26-54.35,365.46-91.5,359.7c-15.37,4.24-35.68,4-55.17-3.29"/><path class="cls-5" d="M123.67-101.41C138.63-52.32,98.62-.73,66,31.48,44.46,52.74,25.94,77.35,10.32,101.85c-24.58,38.58-44.23,78.35-58.23,124C-61,268.58-80,297.15-111.9,303c-16,10.66-39.63,14.9-62.28,9"/><path class="cls-5" d="M77.78-114c10.3,36.24-14,74.37-36.92,100.51C23,6.91,4.61,27.24-12.5,47.09c-28.46,33-55.1,67.3-70.08,109.76-13.43,38.07-25.14,69.2-49.73,89.48-18.39,15.17-43.57,25.83-69.38,21.26"/><path class="cls-5" d="M31.9-126.52c5.64,23.39-2.47,48.38-16.17,68.15s-32.56,35.3-51,50.7c-32.56,27.14-65.89,56.29-81.93,95.53-13.68,33.44-14.06,72.67-35.46,101.79-17.26,23.49-47.52,36.75-76.49,33.53"/></g></g></svg>